<svg width="147" height="23" viewBox="0 0 147 23" fill="none" xmlns="http://www.w3.org/2000/svg">
<path d="M4.23617 19V4.6H16.2362C16.6762 4.6 17.0762 4.70667 17.4362 4.92C17.8095 5.13333 18.1028 5.42667 18.3162 5.8C18.5295 6.16 18.6362 6.56 18.6362 7V16.6C18.6362 17.04 18.5295 17.4467 18.3162 17.82C18.1028 18.18 17.8095 18.4667 17.4362 18.68C17.0762 18.8933 16.6762 19 16.2362 19H4.23617ZM6.63617 17.38H16.2362C16.4495 17.38 16.6295 17.3067 16.7762 17.16C16.9362 17 17.0162 16.8133 17.0162 16.6V7C17.0162 6.78667 16.9362 6.60667 16.7762 6.46C16.6295 6.3 16.4495 6.22 16.2362 6.22H6.63617C6.42284 6.22 6.23617 6.3 6.07617 6.46C5.92951 6.60667 5.85617 6.78667 5.85617 7V16.6C5.85617 16.8133 5.92951 17 6.07617 17.16C6.23617 17.3067 6.42284 17.38 6.63617 17.38ZM23.1959 19C22.7559 19 22.3492 18.8933 21.9759 18.68C21.6159 18.4533 21.3225 18.16 21.0959 17.8C20.8825 17.4267 20.7759 17.02 20.7759 16.58V9.82C20.7759 9.38 20.8825 8.98 21.0959 8.62C21.3225 8.24667 21.6159 7.95333 21.9759 7.74C22.3492 7.51333 22.7559 7.4 23.1959 7.4H30.1559C30.6092 7.4 31.0159 7.51333 31.3759 7.74C31.7492 7.95333 32.0425 8.24667 32.2559 8.62C32.4825 8.98 32.5959 9.38 32.5959 9.82V14.02H22.4159V16.58C22.4159 16.7933 22.4892 16.98 22.6359 17.14C22.7959 17.2867 22.9825 17.36 23.1959 17.36H32.5959V19H23.1959ZM22.4159 12.38H30.9359V9.82C30.9359 9.60667 30.8559 9.42667 30.6959 9.28C30.5492 9.12 30.3692 9.04 30.1559 9.04H23.1959C22.9825 9.04 22.7959 9.12 22.6359 9.28C22.4892 9.42667 22.4159 9.60667 22.4159 9.82V12.38ZM40.0329 19L33.6329 7.4H35.5529L40.9929 17.4L46.4329 7.4H48.3529L41.9329 19H40.0329ZM52.5337 19C52.0937 19 51.687 18.8933 51.3137 18.68C50.9537 18.4667 50.667 18.18 50.4537 17.82C50.2403 17.4467 50.1337 17.04 50.1337 16.6V7C50.1337 6.56 50.2403 6.16 50.4537 5.8C50.667 5.42667 50.9537 5.13333 51.3137 4.92C51.687 4.70667 52.0937 4.6 52.5337 4.6H64.4937V6.22H52.5337C52.3203 6.22 52.1337 6.3 51.9737 6.46C51.827 6.60667 51.7537 6.78667 51.7537 7V16.6C51.7537 16.8133 51.827 17 51.9737 17.16C52.1337 17.3067 52.3203 17.38 52.5337 17.38H64.4937V19H52.5337ZM68.899 19C68.459 19 68.0523 18.8933 67.679 18.68C67.319 18.4533 67.0257 18.16 66.799 17.8C66.5857 17.4267 66.479 17.02 66.479 16.58V9.82C66.479 9.38 66.5857 8.98 66.799 8.62C67.0257 8.24667 67.319 7.95333 67.679 7.74C68.0523 7.51333 68.459 7.4 68.899 7.4H75.859C76.3123 7.4 76.719 7.51333 77.079 7.74C77.4523 7.95333 77.7457 8.24667 77.959 8.62C78.1857 8.98 78.299 9.38 78.299 9.82V16.58C78.299 17.02 78.1857 17.4267 77.959 17.8C77.7457 18.16 77.4523 18.4533 77.079 18.68C76.719 18.8933 76.3123 19 75.859 19H68.899ZM68.899 17.36H75.859C76.0723 17.36 76.2523 17.2867 76.399 17.14C76.559 16.98 76.639 16.7933 76.639 16.58V9.82C76.639 9.60667 76.559 9.42667 76.399 9.28C76.2523 9.12 76.0723 9.04 75.859 9.04H68.899C68.6857 9.04 68.499 9.12 68.339 9.28C68.1923 9.42667 68.119 9.60667 68.119 9.82V16.58C68.119 16.7933 68.1923 16.98 68.339 17.14C68.499 17.2867 68.6857 17.36 68.899 17.36ZM80.0937 19V7.4H89.4937C89.9337 7.4 90.3337 7.51333 90.6937 7.74C91.067 7.95333 91.3603 8.24667 91.5737 8.62C91.8003 8.98 91.9137 9.38 91.9137 9.82V19H90.2737V9.82C90.2737 9.60667 90.1937 9.42667 90.0337 9.28C89.887 9.12 89.707 9.04 89.4937 9.04H82.5337C82.3203 9.04 82.1337 9.12 81.9737 9.28C81.8137 9.42667 81.7337 9.60667 81.7337 9.82V19H80.0937ZM94.0195 19V7.4H103.419C103.859 7.4 104.259 7.51333 104.619 7.74C104.993 7.95333 105.286 8.24667 105.499 8.62C105.726 8.98 105.839 9.38 105.839 9.82V19H104.199V9.82C104.199 9.60667 104.119 9.42667 103.959 9.28C103.813 9.12 103.633 9.04 103.419 9.04H96.4595C96.2461 9.04 96.0595 9.12 95.8995 9.28C95.7395 9.42667 95.6595 9.60667 95.6595 9.82V19H94.0195ZM110.305 19C109.865 19 109.459 18.8933 109.085 18.68C108.725 18.4533 108.432 18.16 108.205 17.8C107.992 17.4267 107.885 17.02 107.885 16.58V9.82C107.885 9.38 107.992 8.98 108.205 8.62C108.432 8.24667 108.725 7.95333 109.085 7.74C109.459 7.51333 109.865 7.4 110.305 7.4H117.265C117.719 7.4 118.125 7.51333 118.485 7.74C118.859 7.95333 119.152 8.24667 119.365 8.62C119.592 8.98 119.705 9.38 119.705 9.82V14.02H109.525V16.58C109.525 16.7933 109.599 16.98 109.745 17.14C109.905 17.2867 110.092 17.36 110.305 17.36H119.705V19H110.305ZM109.525 12.38H118.045V9.82C118.045 9.60667 117.965 9.42667 117.805 9.28C117.659 9.12 117.479 9.04 117.265 9.04H110.305C110.092 9.04 109.905 9.12 109.745 9.28C109.599 9.42667 109.525 9.60667 109.525 9.82V12.38ZM123.762 19C123.322 19 122.916 18.8933 122.542 18.68C122.182 18.4533 121.889 18.16 121.662 17.8C121.449 17.4267 121.342 17.02 121.342 16.58V9.82C121.342 9.38 121.449 8.98 121.662 8.62C121.889 8.24667 122.182 7.95333 122.542 7.74C122.916 7.51333 123.322 7.4 123.762 7.4H133.122V9.04H123.762C123.549 9.04 123.362 9.12 123.202 9.28C123.056 9.42667 122.982 9.60667 122.982 9.82V16.58C122.982 16.7933 123.056 16.98 123.202 17.14C123.362 17.2867 123.549 17.36 123.762 17.36H133.162V19H123.762ZM137.201 19C136.747 19 136.334 18.8933 135.961 18.68C135.601 18.4533 135.314 18.16 135.101 17.8C134.887 17.4267 134.781 17.02 134.781 16.58V3.6H136.421V7.4H141.441V9.04H136.421V16.58C136.421 16.7933 136.494 16.98 136.641 17.14C136.801 17.2867 136.987 17.36 137.201 17.36H141.441V19H137.201Z" fill="white"/>
</svg>
