<svg width="94" height="20" viewBox="0 0 94 20" fill="none" xmlns="http://www.w3.org/2000/svg">
<path d="M4.27873 15.3846V0.984643H16.2787C16.7187 0.984643 17.1187 1.09131 17.4787 1.30464C17.8521 1.51798 18.1454 1.81131 18.3587 2.18464C18.5721 2.54464 18.6787 2.94464 18.6787 3.38464V12.9846C18.6787 13.4246 18.5721 13.8313 18.3587 14.2046C18.1454 14.5646 17.8521 14.8513 17.4787 15.0646C17.1187 15.278 16.7187 15.3846 16.2787 15.3846H4.27873ZM6.67873 13.7646H16.2787C16.4921 13.7646 16.6721 13.6913 16.8187 13.5446C16.9787 13.3846 17.0587 13.198 17.0587 12.9846V3.38464C17.0587 3.17131 16.9787 2.99131 16.8187 2.84464C16.6721 2.68464 16.4921 2.60464 16.2787 2.60464H6.67873C6.4654 2.60464 6.27873 2.68464 6.11873 2.84464C5.97206 2.99131 5.89873 3.17131 5.89873 3.38464V12.9846C5.89873 13.198 5.97206 13.3846 6.11873 13.5446C6.27873 13.6913 6.4654 13.7646 6.67873 13.7646ZM23.2384 15.3846C22.7984 15.3846 22.3917 15.278 22.0184 15.0646C21.6584 14.838 21.3651 14.5446 21.1384 14.1846C20.9251 13.8113 20.8184 13.4046 20.8184 12.9646V6.20464C20.8184 5.76464 20.9251 5.36464 21.1384 5.00464C21.3651 4.63131 21.6584 4.33798 22.0184 4.12464C22.3917 3.89798 22.7984 3.78464 23.2384 3.78464H30.1984C30.6518 3.78464 31.0584 3.89798 31.4184 4.12464C31.7918 4.33798 32.0851 4.63131 32.2984 5.00464C32.5251 5.36464 32.6384 5.76464 32.6384 6.20464V10.4046H22.4584V12.9646C22.4584 13.178 22.5317 13.3646 22.6784 13.5246C22.8384 13.6713 23.0251 13.7446 23.2384 13.7446H32.6384V15.3846H23.2384ZM22.4584 8.76464H30.9784V6.20464C30.9784 5.99131 30.8984 5.81131 30.7384 5.66464C30.5917 5.50464 30.4117 5.42464 30.1984 5.42464H23.2384C23.0251 5.42464 22.8384 5.50464 22.6784 5.66464C22.5317 5.81131 22.4584 5.99131 22.4584 6.20464V8.76464ZM40.0754 15.3846L33.6754 3.78464H35.5954L41.0354 13.7846L46.4754 3.78464H48.3954L41.9754 15.3846H40.0754ZM52.5762 15.3846C52.1362 15.3846 51.7296 15.278 51.3562 15.0646C50.9962 14.8513 50.7096 14.5646 50.4962 14.2046C50.2829 13.8313 50.1762 13.4246 50.1762 12.9846V3.38464C50.1762 2.94464 50.2829 2.54464 50.4962 2.18464C50.7096 1.81131 50.9962 1.51798 51.3562 1.30464C51.7296 1.09131 52.1362 0.984643 52.5762 0.984643H64.5362V2.60464H52.5762C52.3629 2.60464 52.1762 2.68464 52.0162 2.84464C51.8696 2.99131 51.7962 3.17131 51.7962 3.38464V12.9846C51.7962 13.198 51.8696 13.3846 52.0162 13.5446C52.1762 13.6913 52.3629 13.7646 52.5762 13.7646H64.5362V15.3846H52.5762ZM68.9415 15.3846C68.5015 15.3846 68.0949 15.278 67.7215 15.0646C67.3615 14.838 67.0682 14.5446 66.8415 14.1846C66.6282 13.8113 66.5215 13.4046 66.5215 12.9646V6.20464C66.5215 5.76464 66.6282 5.36464 66.8415 5.00464C67.0682 4.63131 67.3615 4.33798 67.7215 4.12464C68.0949 3.89798 68.5015 3.78464 68.9415 3.78464H75.9015C76.3549 3.78464 76.7615 3.89798 77.1215 4.12464C77.4949 4.33798 77.7882 4.63131 78.0015 5.00464C78.2282 5.36464 78.3415 5.76464 78.3415 6.20464V12.9646C78.3415 13.4046 78.2282 13.8113 78.0015 14.1846C77.7882 14.5446 77.4949 14.838 77.1215 15.0646C76.7615 15.278 76.3549 15.3846 75.9015 15.3846H68.9415ZM68.9415 13.7446H75.9015C76.1149 13.7446 76.2949 13.6713 76.4415 13.5246C76.6015 13.3646 76.6815 13.178 76.6815 12.9646V6.20464C76.6815 5.99131 76.6015 5.81131 76.4415 5.66464C76.2949 5.50464 76.1149 5.42464 75.9015 5.42464H68.9415C68.7282 5.42464 68.5415 5.50464 68.3815 5.66464C68.2349 5.81131 68.1615 5.99131 68.1615 6.20464V12.9646C68.1615 13.178 68.2349 13.3646 68.3815 13.5246C68.5415 13.6713 68.7282 13.7446 68.9415 13.7446ZM80.1362 15.3846V3.78464H89.5362C89.9762 3.78464 90.3762 3.89798 90.7362 4.12464C91.1096 4.33798 91.4029 4.63131 91.6162 5.00464C91.8429 5.36464 91.9562 5.76464 91.9562 6.20464V15.3846H90.3162V6.20464C90.3162 5.99131 90.2362 5.81131 90.0762 5.66464C89.9296 5.50464 89.7496 5.42464 89.5362 5.42464H82.5762C82.3629 5.42464 82.1762 5.50464 82.0162 5.66464C81.8562 5.81131 81.7762 5.99131 81.7762 6.20464V15.3846H80.1362Z" fill="white"/>
</svg>
