<svg width="174" height="31" viewBox="0 0 174 31" fill="none" xmlns="http://www.w3.org/2000/svg">
<path d="M1.67021 25V7H16.6702C17.2202 7 17.7202 7.13333 18.1702 7.4C18.6369 7.66667 19.0035 8.03333 19.2702 8.5C19.5369 8.95 19.6702 9.45 19.6702 10V22C19.6702 22.55 19.5369 23.0583 19.2702 23.525C19.0035 23.975 18.6369 24.3333 18.1702 24.6C17.7202 24.8667 17.2202 25 16.6702 25H1.67021ZM4.67021 22.975H16.6702C16.9369 22.975 17.1619 22.8833 17.3452 22.7C17.5452 22.5 17.6452 22.2667 17.6452 22V10C17.6452 9.73333 17.5452 9.50833 17.3452 9.325C17.1619 9.125 16.9369 9.025 16.6702 9.025H4.67021C4.40355 9.025 4.17021 9.125 3.97021 9.325C3.78688 9.50833 3.69522 9.73333 3.69522 10V22C3.69522 22.2667 3.78688 22.5 3.97021 22.7C4.17021 22.8833 4.40355 22.975 4.67021 22.975ZM25.3698 25C24.8198 25 24.3115 24.8667 23.8448 24.6C23.3948 24.3167 23.0282 23.95 22.7448 23.5C22.4782 23.0333 22.3448 22.525 22.3448 21.975V13.525C22.3448 12.975 22.4782 12.475 22.7448 12.025C23.0282 11.5583 23.3948 11.1917 23.8448 10.925C24.3115 10.6417 24.8198 10.5 25.3698 10.5H34.0698C34.6365 10.5 35.1448 10.6417 35.5948 10.925C36.0615 11.1917 36.4282 11.5583 36.6948 12.025C36.9782 12.475 37.1198 12.975 37.1198 13.525V18.775H24.3948V21.975C24.3948 22.2417 24.4865 22.475 24.6698 22.675C24.8698 22.8583 25.1032 22.95 25.3698 22.95H37.1198V25H25.3698ZM24.3948 16.725H35.0448V13.525C35.0448 13.2583 34.9448 13.0333 34.7448 12.85C34.5615 12.65 34.3365 12.55 34.0698 12.55H25.3698C25.1032 12.55 24.8698 12.65 24.6698 12.85C24.4865 13.0333 24.3948 13.2583 24.3948 13.525V16.725ZM46.4161 25L38.4161 10.5H40.8161L47.6161 23L54.4161 10.5H56.8161L48.7911 25H46.4161ZM62.0421 25C61.4921 25 60.9838 24.8667 60.5171 24.6C60.0671 24.3333 59.7088 23.975 59.4421 23.525C59.1754 23.0583 59.0421 22.55 59.0421 22V10C59.0421 9.45 59.1754 8.95 59.4421 8.5C59.7088 8.03333 60.0671 7.66667 60.5171 7.4C60.9838 7.13333 61.4921 7 62.0421 7H76.9921V9.025H62.0421C61.7754 9.025 61.5421 9.125 61.3421 9.325C61.1588 9.50833 61.0671 9.73333 61.0671 10V22C61.0671 22.2667 61.1588 22.5 61.3421 22.7C61.5421 22.8833 61.7754 22.975 62.0421 22.975H76.9921V25H62.0421ZM82.4987 25C81.9487 25 81.4404 24.8667 80.9737 24.6C80.5237 24.3167 80.1571 23.95 79.8737 23.5C79.6071 23.0333 79.4737 22.525 79.4737 21.975V13.525C79.4737 12.975 79.6071 12.475 79.8737 12.025C80.1571 11.5583 80.5237 11.1917 80.9737 10.925C81.4404 10.6417 81.9487 10.5 82.4987 10.5H91.1987C91.7654 10.5 92.2737 10.6417 92.7237 10.925C93.1904 11.1917 93.5571 11.5583 93.8237 12.025C94.1071 12.475 94.2487 12.975 94.2487 13.525V21.975C94.2487 22.525 94.1071 23.0333 93.8237 23.5C93.5571 23.95 93.1904 24.3167 92.7237 24.6C92.2737 24.8667 91.7654 25 91.1987 25H82.4987ZM82.4987 22.95H91.1987C91.4654 22.95 91.6904 22.8583 91.8737 22.675C92.0737 22.475 92.1737 22.2417 92.1737 21.975V13.525C92.1737 13.2583 92.0737 13.0333 91.8737 12.85C91.6904 12.65 91.4654 12.55 91.1987 12.55H82.4987C82.2321 12.55 81.9987 12.65 81.7987 12.85C81.6154 13.0333 81.5237 13.2583 81.5237 13.525V21.975C81.5237 22.2417 81.6154 22.475 81.7987 22.675C81.9987 22.8583 82.2321 22.95 82.4987 22.95ZM96.4921 25V10.5H108.242C108.792 10.5 109.292 10.6417 109.742 10.925C110.209 11.1917 110.575 11.5583 110.842 12.025C111.125 12.475 111.267 12.975 111.267 13.525V25H109.217V13.525C109.217 13.2583 109.117 13.0333 108.917 12.85C108.734 12.65 108.509 12.55 108.242 12.55H99.5421C99.2754 12.55 99.0421 12.65 98.8421 12.85C98.6421 13.0333 98.5421 13.2583 98.5421 13.525V25H96.4921ZM113.899 25V10.5H125.649C126.199 10.5 126.699 10.6417 127.149 10.925C127.616 11.1917 127.983 11.5583 128.249 12.025C128.533 12.475 128.674 12.975 128.674 13.525V25H126.624V13.525C126.624 13.2583 126.524 13.0333 126.324 12.85C126.141 12.65 125.916 12.55 125.649 12.55H116.949C116.683 12.55 116.449 12.65 116.249 12.85C116.049 13.0333 115.949 13.2583 115.949 13.525V25H113.899ZM134.257 25C133.707 25 133.198 24.8667 132.732 24.6C132.282 24.3167 131.915 23.95 131.632 23.5C131.365 23.0333 131.232 22.525 131.232 21.975V13.525C131.232 12.975 131.365 12.475 131.632 12.025C131.915 11.5583 132.282 11.1917 132.732 10.925C133.198 10.6417 133.707 10.5 134.257 10.5H142.957C143.523 10.5 144.032 10.6417 144.482 10.925C144.948 11.1917 145.315 11.5583 145.582 12.025C145.865 12.475 146.007 12.975 146.007 13.525V18.775H133.282V21.975C133.282 22.2417 133.373 22.475 133.557 22.675C133.757 22.8583 133.99 22.95 134.257 22.95H146.007V25H134.257ZM133.282 16.725H143.932V13.525C143.932 13.2583 143.832 13.0333 143.632 12.85C143.448 12.65 143.223 12.55 142.957 12.55H134.257C133.99 12.55 133.757 12.65 133.557 12.85C133.373 13.0333 133.282 13.2583 133.282 13.525V16.725ZM151.078 25C150.528 25 150.019 24.8667 149.553 24.6C149.103 24.3167 148.736 23.95 148.453 23.5C148.186 23.0333 148.053 22.525 148.053 21.975V13.525C148.053 12.975 148.186 12.475 148.453 12.025C148.736 11.5583 149.103 11.1917 149.553 10.925C150.019 10.6417 150.528 10.5 151.078 10.5H162.778V12.55H151.078C150.811 12.55 150.578 12.65 150.378 12.85C150.194 13.0333 150.103 13.2583 150.103 13.525V21.975C150.103 22.2417 150.194 22.475 150.378 22.675C150.578 22.8583 150.811 22.95 151.078 22.95H162.828V25H151.078ZM167.876 25C167.309 25 166.793 24.8667 166.326 24.6C165.876 24.3167 165.518 23.95 165.251 23.5C164.984 23.0333 164.851 22.525 164.851 21.975V5.75H166.901V10.5H173.176V12.55H166.901V21.975C166.901 22.2417 166.993 22.475 167.176 22.675C167.376 22.8583 167.609 22.95 167.876 22.95H173.176V25H167.876Z" fill="white"/>
</svg>
