<svg width="344" height="39" viewBox="0 0 344 39" fill="none" xmlns="http://www.w3.org/2000/svg">
<path d="M0.84043 39V3H30.8404C31.9404 3 32.9404 3.26666 33.8404 3.8C34.7738 4.33333 35.5071 5.06667 36.0404 6C36.5738 6.9 36.8404 7.9 36.8404 9V33C36.8404 34.1 36.5738 35.1167 36.0404 36.05C35.5071 36.95 34.7738 37.6667 33.8404 38.2C32.9404 38.7333 31.9404 39 30.8404 39H0.84043ZM6.84043 34.95H30.8404C31.3738 34.95 31.8238 34.7667 32.1904 34.4C32.5904 34 32.7904 33.5333 32.7904 33V9C32.7904 8.46666 32.5904 8.01666 32.1904 7.65C31.8238 7.25 31.3738 7.05 30.8404 7.05H6.84043C6.3071 7.05 5.84043 7.25 5.44043 7.65C5.07376 8.01666 4.89043 8.46666 4.89043 9V33C4.89043 33.5333 5.07376 34 5.44043 34.4C5.84043 34.7667 6.3071 34.95 6.84043 34.95ZM48.2396 39C47.1396 39 46.123 38.7333 45.1896 38.2C44.2896 37.6333 43.5563 36.9 42.9896 36C42.4563 35.0667 42.1896 34.05 42.1896 32.95V16.05C42.1896 14.95 42.4563 13.95 42.9896 13.05C43.5563 12.1167 44.2896 11.3833 45.1896 10.85C46.123 10.2833 47.1396 10 48.2396 10H65.6397C66.773 10 67.7896 10.2833 68.6896 10.85C69.623 11.3833 70.3563 12.1167 70.8896 13.05C71.4563 13.95 71.7396 14.95 71.7396 16.05V26.55H46.2896V32.95C46.2896 33.4833 46.473 33.95 46.8396 34.35C47.2396 34.7167 47.7063 34.9 48.2396 34.9H71.7396V39H48.2396ZM46.2896 22.45H67.5896V16.05C67.5896 15.5167 67.3896 15.0667 66.9897 14.7C66.623 14.3 66.173 14.1 65.6397 14.1H48.2396C47.7063 14.1 47.2396 14.3 46.8396 14.7C46.473 15.0667 46.2896 15.5167 46.2896 16.05V22.45ZM90.3322 39L74.3322 10H79.1322L92.7322 35L106.332 10H111.132L95.0822 39H90.3322ZM121.584 39C120.484 39 119.468 38.7333 118.534 38.2C117.634 37.6667 116.918 36.95 116.384 36.05C115.851 35.1167 115.584 34.1 115.584 33V9C115.584 7.9 115.851 6.9 116.384 6C116.918 5.06667 117.634 4.33333 118.534 3.8C119.468 3.26666 120.484 3 121.584 3H151.484V7.05H121.584C121.051 7.05 120.584 7.25 120.184 7.65C119.818 8.01666 119.634 8.46666 119.634 9V33C119.634 33.5333 119.818 34 120.184 34.4C120.584 34.7667 121.051 34.95 121.584 34.95H151.484V39H121.584ZM162.497 39C161.397 39 160.381 38.7333 159.447 38.2C158.547 37.6333 157.814 36.9 157.247 36C156.714 35.0667 156.447 34.05 156.447 32.95V16.05C156.447 14.95 156.714 13.95 157.247 13.05C157.814 12.1167 158.547 11.3833 159.447 10.85C160.381 10.2833 161.397 10 162.497 10H179.897C181.031 10 182.047 10.2833 182.947 10.85C183.881 11.3833 184.614 12.1167 185.147 13.05C185.714 13.95 185.997 14.95 185.997 16.05V32.95C185.997 34.05 185.714 35.0667 185.147 36C184.614 36.9 183.881 37.6333 182.947 38.2C182.047 38.7333 181.031 39 179.897 39H162.497ZM162.497 34.9H179.897C180.431 34.9 180.881 34.7167 181.247 34.35C181.647 33.95 181.847 33.4833 181.847 32.95V16.05C181.847 15.5167 181.647 15.0667 181.247 14.7C180.881 14.3 180.431 14.1 179.897 14.1H162.497C161.964 14.1 161.497 14.3 161.097 14.7C160.731 15.0667 160.547 15.5167 160.547 16.05V32.95C160.547 33.4833 160.731 33.95 161.097 34.35C161.497 34.7167 161.964 34.9 162.497 34.9ZM190.484 39V10H213.984C215.084 10 216.084 10.2833 216.984 10.85C217.918 11.3833 218.651 12.1167 219.184 13.05C219.751 13.95 220.034 14.95 220.034 16.05V39H215.934V16.05C215.934 15.5167 215.734 15.0667 215.334 14.7C214.968 14.3 214.518 14.1 213.984 14.1H196.584C196.051 14.1 195.584 14.3 195.184 14.7C194.784 15.0667 194.584 15.5167 194.584 16.05V39H190.484ZM225.299 39V10H248.799C249.899 10 250.899 10.2833 251.799 10.85C252.732 11.3833 253.465 12.1167 253.999 13.05C254.565 13.95 254.849 14.95 254.849 16.05V39H250.749V16.05C250.749 15.5167 250.549 15.0667 250.149 14.7C249.782 14.3 249.332 14.1 248.799 14.1H231.399C230.865 14.1 230.399 14.3 229.999 14.7C229.599 15.0667 229.399 15.5167 229.399 16.05V39H225.299ZM266.013 39C264.913 39 263.896 38.7333 262.963 38.2C262.063 37.6333 261.33 36.9 260.763 36C260.23 35.0667 259.963 34.05 259.963 32.95V16.05C259.963 14.95 260.23 13.95 260.763 13.05C261.33 12.1167 262.063 11.3833 262.963 10.85C263.896 10.2833 264.913 10 266.013 10H283.413C284.546 10 285.563 10.2833 286.463 10.85C287.396 11.3833 288.13 12.1167 288.663 13.05C289.23 13.95 289.513 14.95 289.513 16.05V26.55H264.063V32.95C264.063 33.4833 264.246 33.95 264.613 34.35C265.013 34.7167 265.48 34.9 266.013 34.9H289.513V39H266.013ZM264.063 22.45H285.363V16.05C285.363 15.5167 285.163 15.0667 284.763 14.7C284.396 14.3 283.946 14.1 283.413 14.1H266.013C265.48 14.1 265.013 14.3 264.613 14.7C264.246 15.0667 264.063 15.5167 264.063 16.05V22.45ZM299.656 39C298.556 39 297.539 38.7333 296.606 38.2C295.706 37.6333 294.972 36.9 294.406 36C293.872 35.0667 293.606 34.05 293.606 32.95V16.05C293.606 14.95 293.872 13.95 294.406 13.05C294.972 12.1167 295.706 11.3833 296.606 10.85C297.539 10.2833 298.556 10 299.656 10H323.056V14.1H299.656C299.122 14.1 298.656 14.3 298.256 14.7C297.889 15.0667 297.706 15.5167 297.706 16.05V32.95C297.706 33.4833 297.889 33.95 298.256 34.35C298.656 34.7167 299.122 34.9 299.656 34.9H323.156V39H299.656ZM333.252 39C332.118 39 331.085 38.7333 330.152 38.2C329.252 37.6333 328.535 36.9 328.002 36C327.468 35.0667 327.202 34.05 327.202 32.95V0.499998H331.302V10H343.852V14.1H331.302V32.95C331.302 33.4833 331.485 33.95 331.852 34.35C332.252 34.7167 332.718 34.9 333.252 34.9H343.852V39H333.252Z" fill="white"/>
</svg>
