<svg width="30" height="31" viewBox="0 0 30 31" fill="none" xmlns="http://www.w3.org/2000/svg">
<path d="M3.75 26.8036H9.375V18.3215C9.375 17.8408 9.555 17.4382 9.915 17.1136C10.275 16.789 10.72 16.6262 11.25 16.625H18.75C19.2812 16.625 19.7269 16.7879 20.0869 17.1136C20.4469 17.4393 20.6262 17.8419 20.625 18.3215V26.8036H26.25V11.5358L15 3.90183L3.75 11.5358V26.8036ZM0 26.8036V11.5358C0 10.9986 0.133125 10.4896 0.399375 10.009C0.665625 9.52832 1.0325 9.13248 1.5 8.82147L12.75 1.18754C13.4062 0.735163 14.1562 0.508972 15 0.508972C15.8438 0.508972 16.5938 0.735163 17.25 1.18754L28.5 8.82147C28.9688 9.13248 29.3363 9.52832 29.6025 10.009C29.8687 10.4896 30.0012 10.9986 30 11.5358V26.8036C30 27.7367 29.6325 28.5357 28.8975 29.2007C28.1625 29.8657 27.28 30.1976 26.25 30.1965H18.75C18.2188 30.1965 17.7738 30.0336 17.415 29.7079C17.0562 29.3822 16.8762 28.9796 16.875 28.5V20.0179H13.125V28.5C13.125 28.9807 12.945 29.3839 12.585 29.7096C12.225 30.0353 11.78 30.1976 11.25 30.1965H3.75C2.71875 30.1965 1.83625 29.8645 1.1025 29.2007C0.36875 28.5368 0.00125 27.7378 0 26.8036Z" fill="#2563EB"/>
</svg>
