<svg width="29" height="30" viewBox="0 0 29 30" fill="none" xmlns="http://www.w3.org/2000/svg">
<path d="M3.625 25.9435H9.0625V17.7441C9.0625 17.2794 9.2365 16.8902 9.5845 16.5765C9.9325 16.2627 10.3627 16.1053 10.875 16.1042H18.125C18.6385 16.1042 19.0693 16.2616 19.4173 16.5765C19.7653 16.8913 19.9387 17.2805 19.9375 17.7441V25.9435H25.375V11.1846L14.5 3.80509L3.625 11.1846V25.9435ZM0 25.9435V11.1846C0 10.6653 0.128687 10.1733 0.386062 9.70866C0.643437 9.24403 0.998084 8.86139 1.45 8.56075L12.325 1.18128C12.9594 0.743981 13.6844 0.52533 14.5 0.52533C15.3156 0.52533 16.0406 0.743981 16.675 1.18128L27.55 8.56075C28.0031 8.86139 28.3584 9.24403 28.6157 9.70866C28.8731 10.1733 29.0012 10.6653 29 11.1846V25.9435C29 26.8454 28.6448 27.6178 27.9343 28.2606C27.2238 28.9035 26.3707 29.2243 25.375 29.2232H18.125C17.6115 29.2232 17.1813 29.0658 16.8345 28.751C16.4877 28.4361 16.3137 28.0469 16.3125 27.5834V19.384H12.6875V27.5834C12.6875 28.048 12.5135 28.4377 12.1655 28.7526C11.8175 29.0675 11.3873 29.2243 10.875 29.2232H3.625C2.62812 29.2232 1.77504 28.9024 1.06575 28.2606C0.356458 27.6189 0.00120833 26.8465 0 25.9435Z" fill="white"/>
</svg>
