<svg width="29" height="27" viewBox="0 0 29 27" fill="none" xmlns="http://www.w3.org/2000/svg">
<path d="M14.645 22.4611L14.5 22.6056L14.3405 22.4611C7.453 16.2356 2.9 12.1189 2.9 7.94444C2.9 5.05556 5.075 2.88889 7.975 2.88889C10.208 2.88889 12.383 4.33333 13.1515 6.29778H15.8485C16.617 4.33333 18.792 2.88889 21.025 2.88889C23.925 2.88889 26.1 5.05556 26.1 7.94444C26.1 12.1189 21.547 16.2356 14.645 22.4611ZM21.025 0C18.502 0 16.0805 1.17 14.5 3.00444C12.9195 1.17 10.498 0 7.975 0C3.509 0 0 3.48111 0 7.94444C0 13.39 4.93 17.8533 12.3975 24.5989L14.5 26.5056L16.6025 24.5989C24.07 17.8533 29 13.39 29 7.94444C29 3.48111 25.491 0 21.025 0Z" fill="white"/>
</svg>
