<svg width="32" height="32" viewBox="0 0 32 32" fill="none" xmlns="http://www.w3.org/2000/svg">
<path d="M1.6001 20.8H30.4001M1.6001 11.2H30.4001M11.2001 30.4V1.59998M20.8001 30.4V1.59998M5.4401 1.59998H26.5601C27.5785 1.59998 28.5552 2.00455 29.2754 2.72469C29.9955 3.44483 30.4001 4.42154 30.4001 5.43998V26.56C30.4001 27.5784 29.9955 28.5551 29.2754 29.2753C28.5552 29.9954 27.5785 30.4 26.5601 30.4H5.4401C4.42167 30.4 3.44495 29.9954 2.72481 29.2753C2.00467 28.5551 1.6001 27.5784 1.6001 26.56V5.43998C1.6001 4.9357 1.69942 4.43636 1.8924 3.97047C2.08538 3.50458 2.36823 3.08126 2.72481 2.72469C3.44495 2.00455 4.42167 1.59998 5.4401 1.59998Z" stroke="#2563EB" stroke-width="1.5" stroke-miterlimit="10" stroke-linecap="round" stroke-linejoin="round"/>
</svg>
